<?xml version="1.0" encoding="UTF-8"?> <svg xmlns="http://www.w3.org/2000/svg" xmlns:xlink="http://www.w3.org/1999/xlink" viewBox="0 0 290.19 245.61"><defs><style>.cls-1{isolation:isolate;}.cls-2{fill:#8686f2;mix-blend-mode:lighten;}.cls-10,.cls-11,.cls-12,.cls-13,.cls-14,.cls-15,.cls-16,.cls-23,.cls-24,.cls-3,.cls-31,.cls-4,.cls-42,.cls-5{opacity:0.5;}.cls-3{fill:url(#Áåçûìÿííûé_ãðàäèåíò_143);}.cls-4{fill:url(#Áåçûìÿííûé_ãðàäèåíò_254);}.cls-5{fill:url(#Áåçûìÿííûé_ãðàäèåíò_143-2);}.cls-6{fill:url(#Áåçûìÿííûé_ãðàäèåíò_18);}.cls-7{fill:#bcbeff;}.cls-8{fill:#fff;}.cls-9{fill:#0f054c;}.cls-10{fill:url(#Áåçûìÿííûé_ãðàäèåíò_254-2);}.cls-11{fill:url(#Áåçûìÿííûé_ãðàäèåíò_254-3);}.cls-12{fill:url(#Áåçûìÿííûé_ãðàäèåíò_254-4);}.cls-13{fill:url(#Áåçûìÿííûé_ãðàäèåíò_254-5);}.cls-14,.cls-17,.cls-25{fill:#42e8e0;}.cls-15{fill:url(#Áåçûìÿííûé_ãðàäèåíò_254-6);}.cls-16{fill:url(#Áåçûìÿííûé_ãðàäèåíò_254-7);}.cls-17{opacity:0.8;}.cls-18,.cls-37{opacity:0.11;}.cls-19{fill:url(#Áåçûìÿííûé_ãðàäèåíò_143-3);}.cls-20{fill:url(#Áåçûìÿííûé_ãðàäèåíò_143-4);}.cls-21{fill:url(#Áåçûìÿííûé_ãðàäèåíò_143-5);}.cls-22{fill:url(#Áåçûìÿííûé_ãðàäèåíò_143-6);}.cls-23{fill:url(#Áåçûìÿííûé_ãðàäèåíò_143-7);}.cls-26{fill:url(#Áåçûìÿííûé_ãðàäèåíò_143-9);}.cls-27{fill:url(#Áåçûìÿííûé_ãðàäèåíò_143-10);}.cls-28{fill:url(#Áåçûìÿííûé_ãðàäèåíò_143-11);}.cls-29{fill:url(#Áåçûìÿííûé_ãðàäèåíò_143-12);}.cls-30{fill:url(#Áåçûìÿííûé_ãðàäèåíò_143-13);}.cls-31{fill:url(#Áåçûìÿííûé_ãðàäèåíò_143-14);}.cls-32{fill:url(#Áåçûìÿííûé_ãðàäèåíò_143-16);}.cls-33{fill:url(#Áåçûìÿííûé_ãðàäèåíò_143-17);}.cls-34{fill:url(#Áåçûìÿííûé_ãðàäèåíò_143-18);}.cls-35{fill:url(#Áåçûìÿííûé_ãðàäèåíò_143-19);}.cls-36{fill:url(#Áåçûìÿííûé_ãðàäèåíò_143-20);}.cls-37{fill:url(#Áåçûìÿííûé_ãðàäèåíò_143-21);}.cls-38{fill:url(#Áåçûìÿííûé_ãðàäèåíò_143-22);}.cls-39{fill:url(#Áåçûìÿííûé_ãðàäèåíò_143-23);}.cls-40{fill:url(#Áåçûìÿííûé_ãðàäèåíò_143-24);}.cls-41{fill:url(#Áåçûìÿííûé_ãðàäèåíò_143-25);}.cls-42{fill:url(#Áåçûìÿííûé_ãðàäèåíò_143-26);}.cls-43{fill:url(#Áåçûìÿííûé_ãðàäèåíò_143-28);}.cls-44{fill:#180d5b;opacity:0.2;}.cls-45{fill:#160a5b;}.cls-46{fill:#24126a;}.cls-47{fill:#453c9e;}.cls-48{fill:url(#Áåçûìÿííûé_ãðàäèåíò_143-29);}.cls-49{fill:url(#Áåçûìÿííûé_ãðàäèåíò_143-30);}.cls-50{fill:#f0f6ff;}.cls-51{fill:#fcd1c5;}.cls-52{fill:#4846a5;}.cls-53{fill:#aa8383;}.cls-54{fill:#c4ccd6;}.cls-55{fill:#e2b1a6;}.cls-56{fill:url(#Áåçûìÿííûé_ãðàäèåíò_143-31);}.cls-57{fill:#936d6d;}</style><linearGradient id="Áåçûìÿííûé_ãðàäèåíò_143" x1="79.88" y1="137.08" x2="116.53" y2="137.08" gradientUnits="userSpaceOnUse"><stop offset="0" stop-color="#5761d7"></stop><stop offset="0.07" stop-color="#5472d8"></stop><stop offset="0.28" stop-color="#4e9cdb"></stop><stop offset="0.48" stop-color="#49bddd"></stop><stop offset="0.67" stop-color="#45d5df"></stop><stop offset="0.85" stop-color="#43e3e0"></stop><stop offset="1" stop-color="#42e8e0"></stop></linearGradient><linearGradient id="Áåçûìÿííûé_ãðàäèåíò_254" x1="177.45" y1="137.02" x2="213.89" y2="137.02" gradientUnits="userSpaceOnUse"><stop offset="0" stop-color="#42e8e0"></stop><stop offset="0.15" stop-color="#43e3e0"></stop><stop offset="0.33" stop-color="#45d5df"></stop><stop offset="0.52" stop-color="#49bddd"></stop><stop offset="0.72" stop-color="#4e9cdb"></stop><stop offset="0.93" stop-color="#5472d8"></stop><stop offset="1" stop-color="#5761d7"></stop></linearGradient><linearGradient id="Áåçûìÿííûé_ãðàäèåíò_143-2" x1="78.03" y1="197.14" x2="215.31" y2="197.14" xlink:href="#Áåçûìÿííûé_ãðàäèåíò_143"></linearGradient><linearGradient id="Áåçûìÿííûé_ãðàäèåíò_18" x1="56.93" y1="105.92" x2="211.02" y2="105.92" gradientUnits="userSpaceOnUse"><stop offset="0" stop-color="#5761d7"></stop><stop offset="0.16" stop-color="#5e67da"></stop><stop offset="0.41" stop-color="#727ae2"></stop><stop offset="0.69" stop-color="#9297ee"></stop><stop offset="1" stop-color="#bcbeff"></stop></linearGradient><linearGradient id="Áåçûìÿííûé_ãðàäèåíò_254-2" x1="100.54" y1="85.1" x2="193.03" y2="85.1" xlink:href="#Áåçûìÿííûé_ãðàäèåíò_254"></linearGradient><linearGradient id="Áåçûìÿííûé_ãðàäèåíò_254-3" x1="146.78" y1="68.38" x2="193.03" y2="68.38" xlink:href="#Áåçûìÿííûé_ãðàäèåíò_254"></linearGradient><linearGradient id="Áåçûìÿííûé_ãðàäèåíò_254-4" x1="100.54" y1="68.38" x2="146.78" y2="68.38" xlink:href="#Áåçûìÿííûé_ãðàäèåíò_254"></linearGradient><linearGradient id="Áåçûìÿííûé_ãðàäèåíò_254-5" x1="100.54" y1="78.37" x2="193.03" y2="78.37" xlink:href="#Áåçûìÿííûé_ãðàäèåíò_254"></linearGradient><linearGradient id="Áåçûìÿííûé_ãðàäèåíò_254-6" x1="146.78" y1="95.08" x2="193.03" y2="95.08" xlink:href="#Áåçûìÿííûé_ãðàäèåíò_254"></linearGradient><linearGradient id="Áåçûìÿííûé_ãðàäèåíò_254-7" x1="100.54" y1="95.08" x2="146.78" y2="95.08" xlink:href="#Áåçûìÿííûé_ãðàäèåíò_254"></linearGradient><linearGradient id="Áåçûìÿííûé_ãðàäèåíò_143-3" x1="2.83" y1="162.32" x2="104.95" y2="162.32" xlink:href="#Áåçûìÿííûé_ãðàäèåíò_143"></linearGradient><linearGradient id="Áåçûìÿííûé_ãðàäèåíò_143-4" x1="2.83" y1="154.46" x2="104.95" y2="154.46" xlink:href="#Áåçûìÿííûé_ãðàäèåíò_143"></linearGradient><linearGradient id="Áåçûìÿííûé_ãðàäèåíò_143-5" x1="2.83" y1="146.6" x2="104.95" y2="146.6" xlink:href="#Áåçûìÿííûé_ãðàäèåíò_143"></linearGradient><linearGradient id="Áåçûìÿííûé_ãðàäèåíò_143-6" x1="2.83" y1="138.75" x2="104.95" y2="138.75" xlink:href="#Áåçûìÿííûé_ãðàäèåíò_143"></linearGradient><linearGradient id="Áåçûìÿííûé_ãðàäèåíò_143-7" x1="2.83" y1="146.64" x2="104.95" y2="146.64" xlink:href="#Áåçûìÿííûé_ãðàäèåíò_143"></linearGradient><linearGradient id="Áåçûìÿííûé_ãðàäèåíò_143-9" x1="2.83" y1="152.91" x2="104.95" y2="152.91" xlink:href="#Áåçûìÿííûé_ãðàäèåíò_143"></linearGradient><linearGradient id="Áåçûìÿííûé_ãðàäèåíò_143-10" x1="188.61" y1="162.32" x2="290.74" y2="162.32" xlink:href="#Áåçûìÿííûé_ãðàäèåíò_143"></linearGradient><linearGradient id="Áåçûìÿííûé_ãðàäèåíò_143-11" x1="188.61" y1="154.46" x2="290.74" y2="154.46" xlink:href="#Áåçûìÿííûé_ãðàäèåíò_143"></linearGradient><linearGradient id="Áåçûìÿííûé_ãðàäèåíò_143-12" x1="188.61" y1="146.6" x2="290.74" y2="146.6" xlink:href="#Áåçûìÿííûé_ãðàäèåíò_143"></linearGradient><linearGradient id="Áåçûìÿííûé_ãðàäèåíò_143-13" x1="188.61" y1="138.75" x2="290.74" y2="138.75" xlink:href="#Áåçûìÿííûé_ãðàäèåíò_143"></linearGradient><linearGradient id="Áåçûìÿííûé_ãðàäèåíò_143-14" x1="188.61" y1="146.64" x2="290.74" y2="146.64" xlink:href="#Áåçûìÿííûé_ãðàäèåíò_143"></linearGradient><linearGradient id="Áåçûìÿííûé_ãðàäèåíò_143-16" x1="188.61" y1="152.91" x2="290.74" y2="152.91" xlink:href="#Áåçûìÿííûé_ãðàäèåíò_143"></linearGradient><linearGradient id="Áåçûìÿííûé_ãðàäèåíò_143-17" x1="-174.11" y1="218.4" x2="-78.1" y2="218.4" gradientTransform="matrix(-1, 0, 0, 1, 20.48, 0)" xlink:href="#Áåçûìÿííûé_ãðàäèåíò_143"></linearGradient><linearGradient id="Áåçûìÿííûé_ãðàäèåíò_143-18" x1="-174.11" y1="211.02" x2="-78.1" y2="211.02" gradientTransform="matrix(-1, 0, 0, 1, 20.48, 0)" xlink:href="#Áåçûìÿííûé_ãðàäèåíò_143"></linearGradient><linearGradient id="Áåçûìÿííûé_ãðàäèåíò_143-19" x1="-174.11" y1="203.63" x2="-78.1" y2="203.63" gradientTransform="matrix(-1, 0, 0, 1, 20.48, 0)" xlink:href="#Áåçûìÿííûé_ãðàäèåíò_143"></linearGradient><linearGradient id="Áåçûìÿííûé_ãðàäèåíò_143-20" x1="-174.11" y1="196.24" x2="-78.1" y2="196.24" gradientTransform="matrix(-1, 0, 0, 1, 20.48, 0)" xlink:href="#Áåçûìÿííûé_ãðàäèåíò_143"></linearGradient><linearGradient id="Áåçûìÿííûé_ãðàäèåíò_143-21" x1="-174.11" y1="207.32" x2="-78.1" y2="207.32" gradientTransform="matrix(-1, 0, 0, 1, 20.48, 0)" xlink:href="#Áåçûìÿííûé_ãðàäèåíò_143"></linearGradient><linearGradient id="Áåçûìÿííûé_ãðàäèåíò_143-22" x1="-184.31" y1="183.71" x2="-67.89" y2="183.71" gradientTransform="matrix(-1, 0, 0, 1, 20.48, 0)" xlink:href="#Áåçûìÿííûé_ãðàäèåíò_143"></linearGradient><linearGradient id="Áåçûìÿííûé_ãðàäèåíò_143-23" x1="-184.31" y1="174.75" x2="-67.89" y2="174.75" gradientTransform="matrix(-1, 0, 0, 1, 20.48, 0)" xlink:href="#Áåçûìÿííûé_ãðàäèåíò_143"></linearGradient><linearGradient id="Áåçûìÿííûé_ãðàäèåíò_143-24" x1="-184.31" y1="165.79" x2="-67.89" y2="165.79" gradientTransform="matrix(-1, 0, 0, 1, 20.48, 0)" xlink:href="#Áåçûìÿííûé_ãðàäèåíò_143"></linearGradient><linearGradient id="Áåçûìÿííûé_ãðàäèåíò_143-25" x1="-184.31" y1="156.84" x2="-67.89" y2="156.84" gradientTransform="matrix(-1, 0, 0, 1, 20.48, 0)" xlink:href="#Áåçûìÿííûé_ãðàäèåíò_143"></linearGradient><linearGradient id="Áåçûìÿííûé_ãðàäèåíò_143-26" x1="-184.31" y1="170.27" x2="-67.89" y2="170.27" gradientTransform="matrix(-1, 0, 0, 1, 20.48, 0)" xlink:href="#Áåçûìÿííûé_ãðàäèåíò_143"></linearGradient><linearGradient id="Áåçûìÿííûé_ãðàäèåíò_143-28" x1="-184.31" y1="172.98" x2="-67.89" y2="172.98" gradientTransform="matrix(-1, 0, 0, 1, 20.48, 0)" xlink:href="#Áåçûìÿííûé_ãðàäèåíò_143"></linearGradient><linearGradient id="Áåçûìÿííûé_ãðàäèåíò_143-29" x1="-180.98" y1="141.68" x2="-168.7" y2="141.68" gradientTransform="matrix(-1, 0.06, 0.06, 1, -16.4, -39.49)" xlink:href="#Áåçûìÿííûé_ãðàäèåíò_143"></linearGradient><linearGradient id="Áåçûìÿííûé_ãðàäèåíò_143-30" x1="-163.62" y1="145.66" x2="-137.91" y2="145.66" gradientTransform="matrix(-1, 0.06, 0.06, 1, -16.4, -39.49)" xlink:href="#Áåçûìÿííûé_ãðàäèåíò_143"></linearGradient><linearGradient id="Áåçûìÿííûé_ãðàäèåíò_143-31" x1="-175.43" y1="113.07" x2="-133.63" y2="113.07" gradientTransform="matrix(-1, 0.06, 0.06, 1, -16.4, -39.49)" xlink:href="#Áåçûìÿííûé_ãðàäèåíò_143"></linearGradient></defs><title>team_image</title><g class="cls-1"><g id="Ñëîé_1" data-name="Ñëîé 1"><path class="cls-2" d="M146.78,144.08a5,5,0,0,1-2.52-.59L87.64,110.81a2,2,0,0,1-1.13-1.71A2.59,2.59,0,0,1,88,107l55.86-32.25a6.27,6.27,0,0,1,5.72-.22l56.61,32.69a2,2,0,0,1,1.14,1.7,2.59,2.59,0,0,1-1.52,2.11L150,143.28A6.61,6.61,0,0,1,146.78,144.08Zm-2.08-1.35a5.49,5.49,0,0,0,4.84-.21l55.86-32.25c.67-.39,1.07-.89,1.07-1.35a1.18,1.18,0,0,0-.69-.94L149.16,75.29a5.46,5.46,0,0,0-4.84.22L88.46,107.76c-.67.39-1.07.89-1.07,1.34a1.19,1.19,0,0,0,.69,1Z"></path><path class="cls-3" d="M80.32,147.84a.44.44,0,0,1-.22-.82l35.77-20.65a.44.44,0,1,1,.44.76L80.54,147.78A.43.43,0,0,1,80.32,147.84Z"></path><path class="cls-4" d="M213.46,147.72a.4.4,0,0,1-.22-.05l-35.57-20.54a.44.44,0,0,1,.44-.76l35.56,20.54a.43.43,0,0,1-.21.81Z"></path><path class="cls-5" d="M146.78,216.69a8.38,8.38,0,0,1-4.17-1.11c-14.57-8.45-63.12-36.52-64.28-37a.41.41,0,0,1-.28-.53.44.44,0,0,1,.56-.29c.75.21,63.81,36.73,64.44,37.1a7.49,7.49,0,0,0,7.47,0l64.13-37.17a.44.44,0,1,1,.44.76L151,215.58A8.39,8.39,0,0,1,146.78,216.69Z"></path><polygon class="cls-6" points="206.91 85.09 206.91 92.04 146.78 126.75 86.66 92.04 86.66 85.09 206.91 85.09"></polygon><polygon class="cls-7" points="146.78 119.81 86.66 85.09 146.78 50.38 206.91 85.09 146.78 119.81"></polygon><polygon class="cls-8" points="146.78 118.99 87.36 84.69 86.66 85.09 146.78 119.81 206.91 85.09 206.21 84.69 146.78 118.99"></polygon><polygon class="cls-9" points="146.78 111.8 100.54 85.1 146.78 58.4 193.03 85.1 146.78 111.8"></polygon><polygon class="cls-10" points="146.78 111.8 100.54 85.1 146.78 58.4 193.03 85.1 146.78 111.8"></polygon><polygon class="cls-11" points="146.78 51.67 193.03 78.37 193.03 85.1 146.78 58.4 146.78 51.67"></polygon><polygon class="cls-12" points="146.78 58.4 100.54 85.1 100.54 78.37 146.78 51.67 146.78 58.4"></polygon><polygon class="cls-13" points="146.78 105.07 100.54 78.37 146.78 51.67 193.03 78.37 146.78 105.07"></polygon><polygon class="cls-14" points="146.78 89.03 128.3 78.37 146.78 67.7 165.26 78.37 146.78 89.03"></polygon><polygon class="cls-14" points="146.78 68.68 164.41 78.86 165.26 78.37 146.78 67.7 128.3 78.37 129.15 78.86 146.78 68.68"></polygon><polygon class="cls-15" points="146.78 105.07 146.78 111.8 193.03 85.1 193.03 78.37 146.78 105.07"></polygon><polygon class="cls-16" points="100.54 78.37 100.54 85.1 146.78 111.8 146.78 105.07 100.54 78.37"></polygon><polygon class="cls-17" points="146.78 104.33 101.17 78 100.54 78.37 146.78 105.07 193.03 78.37 192.39 78 146.78 104.33"></polygon><g class="cls-18"><path class="cls-19" d="M57.84,134.42a7.82,7.82,0,0,0-7.83,0L3.38,161.28a1.1,1.1,0,0,0,0,1.91l47,27.14a6.88,6.88,0,0,0,6.91,0l47.09-27.12a1.11,1.11,0,0,0,0-1.91Z"></path></g><g class="cls-18"><path class="cls-20" d="M57.84,126.56a7.85,7.85,0,0,0-7.83,0L3.38,153.42a1.1,1.1,0,0,0,0,1.91l47,27.15a6.93,6.93,0,0,0,6.91,0l47.09-27.12a1.11,1.11,0,0,0,0-1.91Z"></path></g><g class="cls-18"><path class="cls-21" d="M57.84,118.71a7.85,7.85,0,0,0-7.83,0L3.38,145.57a1.09,1.09,0,0,0,0,1.9l47,27.15a6.88,6.88,0,0,0,6.91,0L104.4,147.5a1.11,1.11,0,0,0,0-1.91Z"></path></g><g class="cls-18"><path class="cls-22" d="M57.84,110.85a7.82,7.82,0,0,0-7.83,0L3.38,137.71a1.1,1.1,0,0,0,0,1.91l47,27.15a6.93,6.93,0,0,0,6.91,0l47.09-27.13a1.1,1.1,0,0,0,0-1.9Z"></path></g><path class="cls-23" d="M104.4,137.74,57.84,110.85a7.82,7.82,0,0,0-7.83,0L3.38,137.71a1.08,1.08,0,0,0-.55.95v15.8a1.08,1.08,0,0,0,.55.95l47,27.15a6.88,6.88,0,0,0,6.91,0l47.09-27.12a1.08,1.08,0,0,0,.55-1V138.69h0A1.08,1.08,0,0,0,104.4,137.74Z"></path><g class="cls-18"><path class="cls-22" d="M57.84,110.85a7.82,7.82,0,0,0-7.83,0L3.38,137.71a1.1,1.1,0,0,0,0,1.91l47,27.15a6.93,6.93,0,0,0,6.91,0l47.09-27.13a1.1,1.1,0,0,0,0-1.9Z"></path></g><g class="cls-24"><path class="cls-25" d="M55.56,126.25a3.32,3.32,0,0,0-3.31,0l-20.9,12a.5.5,0,0,0,0,.86l21,12.11a3.08,3.08,0,0,0,3.08,0l21-12.1a.5.5,0,0,0,0-.85Z"></path></g><path class="cls-25" d="M31.35,139l20.9-12a3.29,3.29,0,0,1,3.31,0l20.87,12a.1.1,0,0,1,0,0,.48.48,0,0,0,0-.8L55.56,126.25a3.32,3.32,0,0,0-3.31,0l-20.9,12a.5.5,0,0,0-.05.81Z"></path><path class="cls-26" d="M104.4,138.56,57.31,165.68a6.93,6.93,0,0,1-6.91,0l-47-27.15a1.08,1.08,0,0,1-.41-.41,1.1,1.1,0,0,0,.41,1.5l47,27.15a6.93,6.93,0,0,0,6.91,0l47.09-27.13a1.1,1.1,0,0,0,.41-1.49A1.15,1.15,0,0,1,104.4,138.56Z"></path><g class="cls-18"><path class="cls-27" d="M243.62,134.42a7.81,7.81,0,0,0-7.82,0l-46.64,26.86a1.11,1.11,0,0,0,0,1.91l47,27.14a6.86,6.86,0,0,0,6.9,0l47.1-27.12a1.11,1.11,0,0,0,0-1.91Z"></path></g><g class="cls-18"><path class="cls-28" d="M243.62,126.56a7.83,7.83,0,0,0-7.82,0l-46.64,26.86a1.11,1.11,0,0,0,0,1.91l47,27.15a6.91,6.91,0,0,0,6.9,0l47.1-27.12a1.11,1.11,0,0,0,0-1.91Z"></path></g><g class="cls-18"><path class="cls-29" d="M243.62,118.71a7.83,7.83,0,0,0-7.82,0l-46.64,26.87a1.1,1.1,0,0,0,0,1.9l47,27.15a6.86,6.86,0,0,0,6.9,0l47.1-27.12a1.11,1.11,0,0,0,0-1.91Z"></path></g><g class="cls-18"><path class="cls-30" d="M243.62,110.85a7.81,7.81,0,0,0-7.82,0l-46.64,26.86a1.11,1.11,0,0,0,0,1.91l47,27.15a6.91,6.91,0,0,0,6.9,0l47.1-27.13a1.1,1.1,0,0,0,0-1.9Z"></path></g><path class="cls-31" d="M290.19,137.74l-46.57-26.89a7.81,7.81,0,0,0-7.82,0l-46.64,26.86a1.1,1.1,0,0,0-.55.95v15.8a1.1,1.1,0,0,0,.55.95l47,27.15a6.86,6.86,0,0,0,6.9,0l47.1-27.12a1.1,1.1,0,0,0,.55-1V138.69h0A1.1,1.1,0,0,0,290.19,137.74Z"></path><g class="cls-18"><path class="cls-30" d="M243.62,110.85a7.81,7.81,0,0,0-7.82,0l-46.64,26.86a1.11,1.11,0,0,0,0,1.91l47,27.15a6.91,6.91,0,0,0,6.9,0l47.1-27.13a1.1,1.1,0,0,0,0-1.9Z"></path></g><g class="cls-24"><path class="cls-25" d="M241.35,126.25a3.33,3.33,0,0,0-3.32,0l-20.89,12a.5.5,0,0,0,0,.86l21,12.11a3.08,3.08,0,0,0,3.08,0l21-12.1a.49.49,0,0,0,0-.85Z"></path></g><path class="cls-25" d="M217.14,139,238,127a3.31,3.31,0,0,1,3.32,0l20.86,12s0,0,.05,0a.48.48,0,0,0-.05-.8l-20.86-12.05a3.33,3.33,0,0,0-3.32,0l-20.89,12a.49.49,0,0,0,0,.81Z"></path><path class="cls-32" d="M290.19,138.56l-47.1,27.12a6.91,6.91,0,0,1-6.9,0l-47-27.15a1.15,1.15,0,0,1-.41-.41,1.11,1.11,0,0,0,.41,1.5l47,27.15a6.91,6.91,0,0,0,6.9,0l47.1-27.13a1.1,1.1,0,0,0,.41-1.49A1.24,1.24,0,0,1,290.19,138.56Z"></path><g class="cls-18"><path class="cls-33" d="M142.87,192.18a7.36,7.36,0,0,1,7.36,0l43.84,25.26a1,1,0,0,1,0,1.79l-44.2,25.52a6.51,6.51,0,0,1-6.5,0L99.1,219.24a1,1,0,0,1,0-1.79Z"></path></g><g class="cls-18"><path class="cls-34" d="M142.87,184.79a7.36,7.36,0,0,1,7.36,0L194.07,210a1,1,0,0,1,0,1.79l-44.2,25.53a6.51,6.51,0,0,1-6.5,0L99.1,211.86a1,1,0,0,1,0-1.8Z"></path></g><g class="cls-18"><path class="cls-35" d="M142.87,177.4a7.38,7.38,0,0,1,7.36,0l43.84,25.25a1,1,0,0,1,0,1.8L149.87,230a6.51,6.51,0,0,1-6.5,0L99.1,204.47a1,1,0,0,1,0-1.79Z"></path></g><g class="cls-18"><path class="cls-36" d="M142.87,170a7.36,7.36,0,0,1,7.36,0l43.84,25.26a1,1,0,0,1,0,1.79l-44.2,25.53a6.51,6.51,0,0,1-6.5,0L99.1,197.09a1,1,0,0,1,0-1.8Z"></path></g><path class="cls-37" d="M99.1,195.29,142.87,170a7.36,7.36,0,0,1,7.36,0l43.84,25.26a1,1,0,0,1,.52.89v22.16a1,1,0,0,1-.52.9l-44.2,25.52a6.51,6.51,0,0,1-6.5,0L99.1,219.24a1,1,0,0,1-.52-.89V196.19h0A1,1,0,0,1,99.1,195.29Z"></path><g class="cls-18"><path class="cls-38" d="M142.09,151.91a8.91,8.91,0,0,1,8.92,0l53.16,30.62a1.26,1.26,0,0,1,0,2.18l-53.61,31a7.85,7.85,0,0,1-7.87,0L89,184.73a1.26,1.26,0,0,1,0-2.18Z"></path></g><g class="cls-18"><path class="cls-39" d="M142.09,143a8.91,8.91,0,0,1,8.92,0l53.16,30.62a1.25,1.25,0,0,1,0,2.17l-53.61,30.95a7.85,7.85,0,0,1-7.87,0L89,175.77a1.25,1.25,0,0,1,0-2.17Z"></path></g><g class="cls-18"><path class="cls-40" d="M142.09,134a8.94,8.94,0,0,1,8.92,0l53.16,30.62a1.26,1.26,0,0,1,0,2.18l-53.61,31a7.9,7.9,0,0,1-7.87,0L89,166.82a1.26,1.26,0,0,1,0-2.18Z"></path></g><g class="cls-18"><path class="cls-41" d="M142.09,125a8.91,8.91,0,0,1,8.92,0l53.16,30.63a1.25,1.25,0,0,1,0,2.17l-53.61,30.95a7.85,7.85,0,0,1-7.87,0L89,157.86a1.25,1.25,0,0,1,0-2.17Z"></path></g><path class="cls-42" d="M89,155.69,142.09,125a8.91,8.91,0,0,1,8.92,0l53.16,30.63a1.23,1.23,0,0,1,.63,1.08v26.87a1.25,1.25,0,0,1-.63,1.09l-53.61,31a7.85,7.85,0,0,1-7.87,0L89,184.73a1.25,1.25,0,0,1-.63-1.09V156.77h0A1.23,1.23,0,0,1,89,155.69Z"></path><g class="cls-18"><path class="cls-41" d="M142.09,125a8.91,8.91,0,0,1,8.92,0l53.16,30.63a1.25,1.25,0,0,1,0,2.17l-53.61,30.95a7.85,7.85,0,0,1-7.87,0L89,157.86a1.25,1.25,0,0,1,0-2.17Z"></path></g><path class="cls-43" d="M89,156.62l53.69,30.92a7.85,7.85,0,0,0,7.87,0l53.61-30.95a1.19,1.19,0,0,0,.46-.46,1.25,1.25,0,0,1-.46,1.7l-53.61,30.95a7.85,7.85,0,0,1-7.87,0L89,157.86a1.26,1.26,0,0,1-.46-1.71A1.15,1.15,0,0,0,89,156.62Z"></path><ellipse class="cls-44" cx="146.59" cy="156.84" rx="29.27" ry="16.9"></ellipse><path class="cls-45" d="M157.73,142.51s.71.74,1.45,1.62a19.55,19.55,0,0,0,3.68,2.63c.87.54,4.87,3.57,5.7,6.55s-2,3.38-4.94,2.86S158,153,157.18,152a27.2,27.2,0,0,0-7.14-5c-3.59-1.86-1.42-4.35-1.42-4.35Z"></path><path class="cls-45" d="M131.12,151.37a11.14,11.14,0,0,0-.76,3.06c-.17,1.73-.41,5.47-.5,6.56a9.27,9.27,0,0,0,1.8,6.33c1.93,2.56,2.92,3.58,5.48,2.57s2.5-5.3,2.05-7.51a59.33,59.33,0,0,1-.83-7.67,1.48,1.48,0,0,0-.15-.85Z"></path><path class="cls-46" d="M166.55,91.85S166,111.54,161.43,122a76.1,76.1,0,0,0-3.73,20.16,3.93,3.93,0,0,1-.31,3.42c-1.08,1.53-7.82,2.93-8.93-2.1s-.68-14.46.54-18.39-.44-14.75-.44-14.75-1.84,1.17-4.25,9a102.83,102.83,0,0,1-5,12.9c-.83,2.15-1.6,15.33-1.07,21.77,0,0-5.45.77-7-1.84s-2.11-16.09-1.71-20.4,2.2-18.08,2-22.34-1.13-7.73-.16-12S161,83.67,161,83.67Z"></path><path class="cls-45" d="M131.43,109.37c-.24-4.26-1.13-7.73-.16-12,.37-1.61,4.67-3.94,9.89-6.23,8.81-.81,20-1.74,20.75-1.62a27.38,27.38,0,0,1,4,1.4l.61.91s0,1.2-.15,3.15c-2.05.62-6,0-6,0a21.21,21.21,0,0,1-8.26,8.42c-4.27,2.11-16.76,1.39-17.48,2.19s-.85,11.59-.77,13-1.18,10-2.34,17.63.59,16.63.65,16.92a3.15,3.15,0,0,1-1-1c-1.58-2.6-2.11-16.09-1.71-20.4S131.68,113.63,131.43,109.37Z"></path><path class="cls-47" d="M156.92,27.45l8.53,2a1.08,1.08,0,0,1,.78.67,26.07,26.07,0,0,1,1,13.58,67.38,67.38,0,0,0-1,14.65l2.95,15.37s3.72,14.64,3.4,15-8.55,6.66-11.13,5.78-1.72-2.34-1.72-2.34-2.09,10.61-11.31,10.51-16.76-.07-18.33-3.8.43-19.4,2.06-25.61,5.49-18.58,5.49-18.58L124.15,39.74l11.55-8.82s2.76-5.13,3.89-5.78,1.72-.1,1.72-.1Z"></path><path class="cls-48" d="M161.32,91.13c0,.53.3,1.32,2,1.89s6.18-2,9.05-4.06c-1.43,1.19-8.5,6.35-10.86,5.55a4.35,4.35,0,0,1-1.15-.58A19.92,19.92,0,0,0,161.32,91.13Z"></path><path class="cls-49" d="M130.18,97.63c1.65,3.94,9.61,3.91,19.34,4a10.42,10.42,0,0,0,6-1.75,9.82,9.82,0,0,1-7.13,2.78c-9.23-.1-16.76-.07-18.33-3.8-.51-1.23-.64-3.74-.53-6.78A16.22,16.22,0,0,0,130.18,97.63Z"></path><path class="cls-50" d="M139.84,25s-2.36,2.85,1,6.7a91.59,91.59,0,0,1,8.75,12.8c1.91,3.31,3.68,5.08,4.68,7.93,0,0,.14-3.39.28-8.61.12-4.94.19-10.06,0-11.35C154.1,29.83,142.45,23.72,139.84,25Z"></path><path class="cls-51" d="M148.66,33.6s1.21.75,1.63.69S152,32.93,152,32.93s3.35-.06,3.71-1.5a31.39,31.39,0,0,1,.95-3.62c.34-.75,1.78-4.33,1.79-5.78s0-4.05.59-5.42,1.47-15.12-11.8-14.73-9.15,14.17-9.15,14.17-1,.41-.38,2.18.72,2,1,2.84a3.87,3.87,0,0,0,1.29,2.16l.22,1.64a6.56,6.56,0,0,0,1,4.92C143,32.21,148.66,33.6,148.66,33.6Z"></path><path class="cls-46" d="M165.82,29.57s1.41.21,6,11.76c2.57,6.44,6.52,13.12,7.36,17.91s.37,9.91-.58,10.27S161.19,76,156,78a.5.5,0,0,1-.65-.38l-1.42-8,10.24-4A14.62,14.62,0,0,1,168,62.41s-2-3.79-1.92-4.82-.19-11.71,1-16.06S165.82,29.57,165.82,29.57Z"></path><path class="cls-51" d="M159.82,60.09A19.34,19.34,0,0,1,161.58,59c.35-.13,2.23-.78,2.59-.94a7,7,0,0,1,1.92,0,.6.6,0,0,1,.47.31c.43.81,1.65,3.16,1.51,4.06,0,0-3.41,2.15-3.79,3.11l-.54.12S161.46,60.8,159.82,60.09Z"></path><path class="cls-46" d="M132.17,73.27c.39-1.49.91-3.34,1.48-5.29l20.73,8.88A21.87,21.87,0,0,1,137.3,84a14.25,14.25,0,0,1-6.74-2.12A81.19,81.19,0,0,1,132.17,73.27Z"></path><path class="cls-46" d="M124.15,39.74s5.47.75,9.88,7.75a105.59,105.59,0,0,1,7.64,15.11l.15.91A3.69,3.69,0,0,0,147,66.27c4.67-2.08,11.57-5.23,12.86-6.18a11.92,11.92,0,0,1,5.26,7.68c.9,4.3.67,4.32.67,4.32s-18.41,8.59-25.52,8.5S124.1,57.13,123.11,52.3,121,41.1,124.15,39.74Z"></path><path class="cls-52" d="M124.15,39.74s5.47.75,9.88,7.75a105.59,105.59,0,0,1,7.64,15.11l.15.91A3.69,3.69,0,0,0,147,66.27c4.67-2.08,11.57-5.23,12.86-6.18a11.92,11.92,0,0,1,5.26,7.68c.9,4.3.67,4.32.67,4.32s-18.41,8.59-25.52,8.5S124.1,57.13,123.11,52.3,121,41.1,124.15,39.74Z"></path><path class="cls-47" d="M144.32,67.36s-2.32,2.17-3.33,1-.72-1.32-.72-1.32-2.09,0-2.34-1.33-1.28-.62-1.34-2.08,1.69-1.15,1.69-1.15Z"></path><path class="cls-51" d="M147.13,66.2s-.64-.6-1.47-1.3-2.15-3.58-2.38-3.83-3-2.38-4.34-2.42-.34,1.46,0,1.67,1.62.86,1.62.86,1.35,1.13,1.5,1.3-3.74-.27-4.36.11a1.05,1.05,0,0,0,0,1.64,1.5,1.5,0,0,0,.77.27,1.35,1.35,0,0,0,.73,1.71c1.17.54,1.44.24,1.44.24s.1,2,2,1.62Z"></path><path class="cls-53" d="M159.38,9.58s1.73,5.52-2.83,3.95-8.68-4.2-10.12-3.2c-1.09.76-1,3.1-1,4.17a1.63,1.63,0,0,1-.27,1l-1.36,2a1.53,1.53,0,0,0-.26.75l-.09,1.37a.69.69,0,0,1-.65.63l-.31,0a.68.68,0,0,1-.71-.56l-.36-2s-1.07-2.7-3.34-1.64c0,0-1.51-2-1-6.4s2.46-8.89,11-9.61S159.38,9.58,159.38,9.58Z"></path><path class="cls-54" d="M146.31,38.45l1.28-1a6.83,6.83,0,0,1,1.64,2c.46,1,0,4.36,0,4.36l.39.67.48-.88.41-3.92s-.44-2.9-.48-3a24.57,24.57,0,0,0-2.47.26A5,5,0,0,0,146.31,38.45Z"></path><path class="cls-54" d="M152.46,34.55a4.26,4.26,0,0,1,2,.61l-1.66.09C152.55,35.28,152.46,34.55,152.46,34.55Z"></path><path class="cls-46" d="M149.85,34.86,147.56,37a5.22,5.22,0,0,1,2.58,2.72s2.49.47,2.72-.43,0-3.19.29-4.2S149.85,34.86,149.85,34.86Z"></path><path class="cls-46" d="M152.77,39.24a13.16,13.16,0,0,0,.89,2.66c.47.77,1,1.64,1,1.64l-.06,11s-4.05-8.34-4.93-10c0,0,.13-4,.52-4.79S152.77,39.24,152.77,39.24Z"></path><path class="cls-55" d="M141.89,23a16.81,16.81,0,0,0,10.15,10s-1.34,1.3-1.75,1.36-1.63-.69-1.63-.69-5.71-1.39-7.36-3.81a6.56,6.56,0,0,1-1-4.92l-.22-1.64A1.78,1.78,0,0,0,141.89,23Z"></path><path class="cls-46" d="M135.81,32s1.05,3.62,1.18,3.76a16.87,16.87,0,0,0,2.64-.16l-1.21,2.31S151,51.38,153.63,58.65a153.43,153.43,0,0,0-16.46-20.22l1.49-2.24-2.58.5Z"></path><path class="cls-46" d="M156.5,28.76l.67.76-.78.74,2.33,2.1s.71,14.78-2.14,24.57c0,0,3.87-9,3-25l-2.52-1.71.82-.81Z"></path><path class="cls-45" d="M148.56,110.33a.24.24,0,0,0-.08.06l3.26-3.47c-1.51,2.12.23,11.85.41,14.08s-1.74,6.83-2.46,12.22.75,13.06.76,13.08a4.14,4.14,0,0,1-2-2.83c-1.11-5-.68-14.46.54-18.39S148.56,110.33,148.56,110.33Z"></path><path class="cls-56" d="M140.23,80.59c-7.11-.08-16.13-23.46-17.12-28.29-.17-.8-.33-1.65-.48-2.51,0,.07,1.86,5.11,3.64,9.59s11.29,18.16,16.14,19.05c4.38.8,20.13-6.55,23.18-8,.28,1.64.16,1.66.16,1.66S147.34,80.68,140.23,80.59Z"></path><path class="cls-57" d="M142.54,20.26a.68.68,0,0,1-.71-.56l-.36-2s-1.07-2.7-3.34-1.64c0,0-1.43-1.94-1-6.06,2.52,3.79,8.12,5.54,8.12,5.54l-1.36,2a1.53,1.53,0,0,0-.26.75l-.09,1.37a.69.69,0,0,1-.65.63Z"></path></g></g></svg> 